<svg xmlns="http://www.w3.org/2000/svg" width="54" height="119" viewBox="0 0 54 119"><path d="M54 63c-4 6-6 8-11 12 2 1 4 1 6 1-2 3-4 5-9 6 1 2 4 4 6 5-3 3-7 5-10 5 3 4 5 4 8 5-4 3-6 5-12 7 7 4 13 4 20 3v7h2zM17 15c5-4 7-6 11-12 2 5 7 9 11 12-1 1-4 2-6 2 2 3 6 4 9 5-2 3-5 4-6 4 3 4 8 6 10 6-2 3-4 4-6 5 2 3 7 5 11 6-6 5-13 5-20 4v7h-5v-7c-7 1-13 1-20-3 6-2 8-4 12-7-3-1-5-1-8-5 3 0 7-2 10-5-2-1-5-3-6-5 5-1 7-3 9-6-2 0-4 0-6-1M0 63v51h3v-7c7 1 14 1 20-4-4-1-9-3-11-6 2-1 4-2 6-5-2 0-7-2-10-6 1 0 4-1 6-4-3-1-7-2-9-5 2 0 5-1 6-2-4-3-9-7-11-12" style="fill:#fff1fa"/></svg>